<?xml version="1.0" encoding="UTF-8"?><svg xmlns="http://www.w3.org/2000/svg" viewBox="0 0 1920 1920"><defs><style>.d{fill:#fff;}.e{fill:#db333a;}.f{fill:#db353c;}.g{fill:#d61921;}</style></defs><g id="a"/><g id="b"><g id="c"><rect class="d" width="1920" height="1920"/><g><g><path class="e" d="M988.81,450.4c-2,1.45-4,1.59-5.99,0h5.99Z"/><path class="f" d="M997.8,450.4c-2,1.62-4,1.43-5.99,0h5.99Z"/><path class="g" d="M1441.68,1019.25c.31,51.54,4.73,36.31-43.05,38.71-14.4,0-.44-27.49-38.68-32.1-10.14-1.53-26.59,1.69-27.54,13.28-1.61,20.69,25.42,21.75,39.73,27.29,37.24,10.27,78.94,19.97,70.81,69.45-11.14,57.99-93.31,60.73-134.23,30.71-3.22-2.3-4.48-1.11-4.52,2.42-.73,5.08,2.62,14.73-5.33,14.6-11.32-.07-22.64-.05-33.96,0-3.72,.01-5.61-1.74-5.61-5.42-.03-21.63-.04-43.27-.05-64.9,0-3.85,2.2-6.07,5.82-6.13,12.31-.18,24.62-.24,36.93,0,3.9,.08,6.55,2.69,8.37,6.24,10.11,19.75,39.52,31.09,59.34,19.43,26.21-25.11-40.94-32.18-55.09-37.15-72.59-16.48-52.87-113.17,15-118.02,22.65-2.25,48.08,.04,64.5,17.58,1.22,1.28,2.55,3.37,4.4,2.82,2.23-.67,1.19-3.15,1.21-4.83,.17-12.56,.14-12.56,12.59-12.56,6.16,0,12.32,0,18.48,0,10.39,0,10.87,.5,10.87,11.12,0,9.15,0,18.31,0,27.46Z"/><path class="g" d="M772.62,1184.42c-15.32,0-30.63,.02-45.95,0-7.16-.01-8.07-.94-8.07-8.03,0-12.82,.12-25.64-.06-38.45-.07-4.73,1.71-6.44,6.47-6.4,12.49,.09,12.49-.08,12.49-12.84,0-26.3,.01-52.6,0-78.9,0-7.5-.55-8-7.91-8.02q-11.1-.04-11.1-11.38c0-11.49-.04-22.97,.02-34.46,.03-6.22,.78-6.98,6.85-6.99,20.31-.04,40.62-.04,60.94,0,6.51,.01,8.2,1.69,8.25,8.37,.09,12.82,0,25.64,.08,38.45-1.21,5.65,3.52,6.41,5.16,1.16,16.02-33.68,44.18-48.11,79.96-50.34,7.84-.49,10.15,1.92,10.15,9.78,.01,16.81,.02,33.63,0,50.44,2.39,16.44-28.65-2.92-56.77,13.88-32.32,15.47-27.94,44.08-27.92,74.6-.07,4.07,1.58,5.79,5.6,5.68,5.29,.86,16.1-3.07,16.09,5.22-.09,13.82,.05,27.63-.05,41.45-.04,4.96-2.23,6.78-7.76,6.79-15.48,.04-30.97,.01-46.45,.01Z"/><path class="g" d="M1327.62,963.6c-8.99-32.29-41.38-23.15-66.86-24.46-8.64-.09-9.77-1.39-9.76-9.97,.02-13.81,0-27.62,.02-41.44,.01-7.83,2.69-10.53,10.47-10.55,15.31-.03,30.62-.09,45.94,.01,47.03-.44,31.93,58.41,20.19,86.4Z"/><path class="g" d="M707.09,1139.99c-.06-5.19-3.32-8.18-8.58-8.35-8.03-.23-18.52,1.87-21.31-7.96-26.83-71.86-53.68-143.71-80.43-215.59-6.71-18.03-14.5-24.06-33.8-24.27-23.47-.26-46.95-.1-70.42-.06-5.51,0-7.83,2.33-7.88,7.96-.09,12.15-.1,24.3,0,36.45,.05,5.64,2.18,7.77,7.92,8,6.52,1.63,26.9-4.72,21.14,7.86-10.45,26.76-20.94,53.49-31.28,80.29-12.85,33.3-25.61,66.64-38.32,99.99-2.23,9.36-11.19,7.09-18.67,7.32-5.55,.06-7.08,1.55-7.1,7.11-.04,12.32-.04,24.63,0,36.95,.02,6.38,2.33,8.69,8.72,8.73,32.3,.07,64.59-.05,96.89,.04,4.11,0,7.22-.66,7.18-5.87-.11-13.65-.03-27.3-.02-40.95,0-4.11-1.94-6.09-6.13-6.03-33.72,1.96-25.41-3.22-16.06-29.1,2.53-8.64,22.91-3.37,30.73-4.77,18.31,0,36.62-.02,54.94,.05,3.29,.01,7.2-.23,8.77,3.39,3.41,7.92,6.7,15.95,8.45,24.43,1.6,10.2-14.63,4.78-20.69,6.1-6.21,.04-8.06,1.82-8.08,7.98-.05,12.15-.02,24.3-.01,36.45,0,7.45,.79,8.28,8.26,8.29,17.81,.03,35.62,0,53.44,0,18.31,0,36.62,.02,54.94-.01,5.35-.01,7.38-1.69,7.42-6.47,.1-12.65,.13-25.3-.01-37.95Zm-149.17-87.48c-7.16,0-14.31,.13-21.47-.04-5.9-.14-6.98-1.9-5.09-7.51,6.76-20.14,13.53-40.28,20.29-60.42,.88-5.47,6.5-10.66,8.75-2.73,7.96,21.3,15.92,42.59,23.97,63.85,5.66,11.47-20.45,5.47-26.45,6.85Z"/><path class="g" d="M1110.44,1037c-20.48-63.85-100.27-77.22-137.87-38.72-1.04,1.07-2.32,2.24-3.92,1.68-2.05-.72-1.53-2.72-1.54-4.3-.03-17.48-.02-34.95-.02-52.43,0-16.64,0-33.29,0-49.93,0-9.27-.56-9.8-10.03-9.8-19.98,0-39.95,0-59.93,0q-11.37,0-11.35,11.36c0,11.98,.11,23.97-.05,35.95-.52,6.18,4.98,6.14,9.53,5.91,10.62-.41,10.14,1.15,10.12,11.22-.01,59.08,.03,118.18-.02,177.26,1.07,10.26-12.2,5.09-18.37,6.38-5.71,.12-6.96,1.36-6.99,7.17-.06,11.82-.03,23.63-.02,35.45,0,9.09,1.1,10.16,10.44,10.17,19.31,.01,38.62-.07,57.93,.02,17.48,.08,14.49-.17,14.79-14.91,.04-1.91-.89-4.56,1.26-5.47,2.41-1.02,4.45,1.01,5.95,2.72,10.68,12.28,26.51,16.33,41.96,18.36,84.61,14.69,122.87-79.38,98.14-148.08Zm-140.65,46.84c-.07-12.09,1.44-20.9,5.27-29.17,11.59-28.76,57.45-29.58,69.51-.88,34.33,75.89-68.56,112.99-74.79,30.05Z"/></g><path class="g" d="M1213.01,1122.89c-.07,4.07,1.58,5.79,5.6,5.68,5.29,.86,16.1-3.07,16.09,5.22-.09,13.82,.05,27.63-.05,41.45-.04,4.96-2.23,6.78-7.76,6.79-15.48,.04-19.96,.01-35.44,.01s-30.63,.02-45.95,0c-7.16-.01-8.07-.94-8.07-8.03,0-12.82,.12-25.64-.06-38.45-.07-4.73,1.71-6.44,6.47-6.4,12.49,.09,12.49-.08,12.49-12.84,0-26.3,.01-52.6,0-78.9,0-7.5-.55-8-7.91-8.02q-11.1-.04-11.1-11.38c0-11.49-.04-22.97,.02-34.46,.03-6.22,.78-6.98,6.85-6.99,20.31-.04,40.62-.04,60.94,0,6.51,.01,8.2,1.69,8.25,8.37,.09,12.82,0,25.64,.08,38.45"/><path class="g" d="M1170.87,976.54c-6.51,.01-8.2,1.69-8.25,8.37-.09,12.82,0,25.64-.08,38.45"/><path class="g" d="M1158.97,1122.89c.07,4.07-1.58,5.79-5.6,5.68-5.29,.86-16.1-3.07-16.09,5.22,.09,13.82-.05,27.63,.05,41.45,.04,4.96,2.23,6.78,7.76,6.79,15.48,.04,30.97,.01,46.45,.01s10.62,.02,25.94,0c7.16-.01,8.07-.94,8.07-8.03,0-12.82-.12-25.64,.06-38.45,.07-4.73-1.71-6.44-6.47-6.4-12.49,.09-12.49-.08-12.49-12.84"/><path class="g" d="M1501.66,998.76c0,3.01-.55,5.83-1.65,8.45-1.1,2.62-2.63,4.92-4.6,6.88-1.97,1.97-4.25,3.5-6.86,4.6-2.61,1.1-5.42,1.65-8.43,1.65h-.27c-3.02,0-5.83-.55-8.45-1.65s-4.91-2.63-6.88-4.6c-1.96-1.97-3.5-4.26-4.6-6.88-1.1-2.62-1.65-5.44-1.65-8.45v-.27c0-3.01,.55-5.83,1.65-8.43,1.1-2.61,2.63-4.9,4.6-6.86,1.97-1.97,4.26-3.5,6.88-4.6,2.62-1.1,5.44-1.65,8.45-1.65h.27c3.01,0,5.83,.55,8.43,1.65,2.61,1.1,4.89,2.63,6.86,4.6,1.96,1.97,3.5,4.25,4.6,6.86s1.65,5.42,1.65,8.43v.27Zm-7.1-8.73c-1.48-2.52-3.48-4.51-6-6-2.52-1.48-5.33-2.22-8.45-2.22h-.27c-3.12,0-5.94,.74-8.47,2.22-2.53,1.48-4.53,3.48-6.02,6-1.48,2.52-2.22,5.33-2.22,8.45v.27c0,3.12,.74,5.94,2.22,8.47,1.48,2.53,3.49,4.54,6.02,6.02s5.35,2.22,8.47,2.22h.27c3.12,0,5.94-.74,8.45-2.22,2.52-1.48,4.52-3.49,6-6.02,1.48-2.53,2.22-5.35,2.22-8.47v-.27c0-3.12-.74-5.94-2.22-8.45Zm-23.26-2.4h9.67c2.67,0,4.75,.64,6.23,1.91,1.48,1.27,2.22,3.09,2.22,5.45v.04c0,1.39-.37,2.65-1.12,3.79-.75,1.14-1.75,1.96-3.01,2.46l4.8,8.38h-5.86l-4.17-7.51h-3.62v7.51h-5.15v-22.02Zm9.16,10.34c1.15,0,2.06-.27,2.71-.83,.66-.55,.98-1.27,.98-2.16s-.34-1.65-1.02-2.18c-.68-.54-1.6-.81-2.75-.81h-3.89v5.98h3.97Z"/><g><path class="g" d="M1001.8,450.4c-53.52-6.64-98.71,39.73-81.48,95.1,8.23,27.52,26.52,50.79,33.94,78.51,2.75,7.16-2.14,25.26-11.77,16.39-4.23-4.05-7.54-8.86-10.83-13.67-23.12-33.13-40.16-72.23-73.49-96.76-87.84-52.89-160.05,140.78-171.1,204.14-14,60.78-21.98,122.76-27.92,184.79-.64,7.03,1.43,9.1,8.34,9.11,13.15,.03,26.3,.01,39.46,0,8.24,0,9.76-1.23,10.79-9.57,15.78-104.52,16.16-248.29,97.26-325.39,23.53-17.78,44.2,33.28,55,48.53,10.11,17.65,21.11,34.71,36.45,48.43,59.38,53.05,125.86-26.22,101.75-88.48-4.71-16.82-13.27-31.82-21.83-46.84-8.26-12-20.16-38.65,4.59-37.91,94.99,21.76,140.83,201.86,149.65,284.56,.71,6.78,3.07,25.59,3.64,32.37,.35,4.13,3.82,7.3,7.96,7.3l37.5-.03c4.75,0,8.46-4.11,7.95-8.84-15.56-146.26-65.49-345.11-195.87-381.76Z"/><path class="g" d="M1149.71,932.05c.33,5.94,2.48,8.38,8.57,8.41,12.49,.07,24.97,.03,37.46,.02,9.28,0,11.46-1.77,10.98-11.07-.73-13.97-2.43-27.62-3.33-43.78-.27-4.76-4.21-8.49-8.98-8.49h-38.4c-5.11,0-9.17,4.25-8.99,9.36,.57,15.65,1.79,29.37,2.7,45.55Z"/></g><path class="g" d="M1299.22,1223.76c2.54,0,4.52,2.09,4.52,4.63,0,261.74-457.2,241.47-457.2,241.47-349.55,7.39-449.3-309.14-43.5-216.09,42.75,10.41,112.21,29.55,142.91,61.36,21.49,22.27-7.35,54.78-70.32,15.33-67.09-42.03-235.27-77.14-279.34-28.21-7.08,7.86-8.45,19.24-3.84,28.77,41.05,84.87,226.31,99.41,352.83,93.19,0,0,299.71-9.33,313.67-196.35,.17-2.33,2.16-4.1,4.49-4.1h35.77Z"/></g></g></g></svg>